<svg id="Capa_1" enable-background="new 0 0 497 497" height="512" viewBox="0 0 497 497" width="512" xmlns="http://www.w3.org/2000/svg"><g><g fill="#4a4854"><path d="m196 75.451h15v335.299h-15z"/><path d="m166 101.25h15v309.5h-15z"/><path d="m136 138.75h15v272h-15z"/><path d="m286 75.451h15v335.299h-15z"/><path d="m316 101.25h15v309.5h-15z"/><path d="m346 138.75h15v272h-15z"/></g><path d="m383.5 228.75h-22.5l-30-15 30-15h22.5z" fill="#2c2b33"/><path d="m263.5 198.75h97.5v30h-97.5z" fill="#4a4854"/><path d="m233.5 228.75h-22.5l-30-15 30-15h22.5z" fill="#2c2b33"/><path d="m113.5 198.75h97.5v30h-97.5z" fill="#4a4854"/><path d="m437 108.75v317l15 15h22.5c4.142 0 7.5-3.358 7.5-7.5v-294.5z" fill="#f96c38"/><path d="m413.5 138.75v294.5c0 4.142 3.358 7.5 7.5 7.5h31v-332z" fill="#fc8647"/><path d="m482 138.75h-30l-23.5-45h53.5z" fill="#ffbc72"/><path d="m413.5 93.75h38.5v45h-38.5z" fill="#ffd693"/><path d="m482 78.75h-30v30h30c8.284 0 15-6.716 15-15s-6.716-15-15-15z" fill="#ffd693"/><path d="m467 93.75c0-8.284-6.716-15-15-15h-38.5c-8.284 0-15 6.716-15 15s6.716 15 15 15h38.5c8.284 0 15-6.716 15-15z" fill="#fff0b8"/><path d="m38.5 108.75v317l15 15h22.5c4.142 0 7.5-3.358 7.5-7.5v-294.5z" fill="#f96c38"/><path d="m15 138.75v294.5c0 4.142 3.358 7.5 7.5 7.5h31v-332z" fill="#fc8647"/><path d="m83.5 138.75h-30l-23.5-45h53.5z" fill="#ffbc72"/><path d="m15 93.75h38.5v45h-38.5z" fill="#ffd693"/><path d="m83.5 78.75h-30v30h30c8.284 0 15-6.716 15-15s-6.715-15-15-15z" fill="#ffd693"/><path d="m68.5 93.75c0-8.284-6.716-15-15-15h-38.5c-8.284 0-15 6.716-15 15s6.716 15 15 15h38.5c8.285 0 15-6.716 15-15z" fill="#fff0b8"/><path d="m113.5 343.25h120v15h-120z" fill="#4a4854"/><path d="m263.5 343.25h120v15h-120z" fill="#4a4854"/><path d="m233.5 56.25c-3.86 0-7.67.31-11.41.92l3.91 14.59v331.49l-7.5 15h15c4.14 0 7.5-3.36 7.5-7.5v-347c0-4.14-3.36-7.5-7.5-7.5z" fill="#2c2b33"/><path d="m226 403.25v7.5c0 4.14-3.36 7.5-7.5 7.5h-105c-4.14 0-7.5-3.36-7.5-7.5v-272c0-4.14 3.36-7.5 7.5-7.5h26.4l39-48.76c10.93-13.67 26.26-22.55 43.19-25.32 2.33 1.27 3.91 3.74 3.91 6.58v8.01c-13.87 1.88-26.49 8.98-35.38 20.1l-41.26 51.58c-1.43 1.77-3.58 2.81-5.86 2.81h-22.5v257z" fill="#4a4854"/><path d="m383.5 131.25h-15l7.5 15v257l-7.5 15h15c4.142 0 7.5-3.358 7.5-7.5v-272c0-4.142-3.358-7.5-7.5-7.5z" fill="#2c2b33"/><path d="m376 410.75v-7.5h-105v-331.494c13.873 1.888 26.486 8.982 35.384 20.104l41.259 51.574c1.423 1.779 3.578 2.815 5.856 2.815h22.501v-7.5c0-4.142-3.358-7.5-7.5-7.5h-11.396l-39.007-48.759c-13.341-16.676-33.241-26.24-54.597-26.24-4.142 0-7.5 3.358-7.5 7.5v347c0 4.142 3.358 7.5 7.5 7.5h105c4.142 0 7.5-3.358 7.5-7.5z" fill="#4a4854"/></g></svg>