<svg height="512" viewBox="0 0 64 64" width="512" xmlns="http://www.w3.org/2000/svg"><g id="flat"><path d="m61 30h-55l-3-2 3-2h55z" fill="#d3843d"/><path d="m56 46h-49l-4-12h58z" fill="#143441"/><path d="m7 46h4v13h-4z" fill="#7d8d9c"/><path d="m52 46h4v13h-4z" fill="#7d8d9c"/><path d="m11 50h41v4h-41z" fill="#394d5c"/><circle cx="16" cy="28" fill="#e1462b" r="6"/><path d="m26 22h12v12h-12z" fill="#66342e"/><path d="m45 16a3 3 0 0 1 3 3v15a0 0 0 0 1 0 0h-6a0 0 0 0 1 0 0v-15a3 3 0 0 1 3-3z" fill="#8ec13f"/><path d="m19 27h-2v-2h-2v2h-2v2h2v2h2v-2h2z" fill="#be2821"/><path d="m27.969 27.5h8.062v2h-8.062z" fill="#995f5b" transform="matrix(.496 -.868 .868 .496 -8.621 42.144)"/><path d="m28 37h8v2h-8z" fill="#f4f4e6"/><path d="m52 22h5v12h-5z" fill="#f9bb4b"/><path d="m8 37h2v2h-2z" fill="#f4f4e6"/><path d="m12 39h2v2h-2z" fill="#f4f4e6"/><g fill="#4f97d5"><path d="m24 14h-2v-2a3 3 0 0 1 3-3 1 1 0 0 0 1-1v-2h2v2a3 3 0 0 1 -3 3 1 1 0 0 0 -1 1z"/><path d="m31 14h-2v-2a3 3 0 0 1 3-3 1 1 0 0 0 1-1v-2h2v2a3 3 0 0 1 -3 3 1 1 0 0 0 -1 1z"/><path d="m38 14h-2v-2a3 3 0 0 1 3-3 1 1 0 0 0 1-1v-2h2v2a3 3 0 0 1 -3 3 1 1 0 0 0 -1 1z"/></g></g></svg>